<?xml version="1.0"?>
<!-- Generated by SVGo -->
<svg width="176.347mm" height="134.762mm"
     viewBox="0.000 0.000 176.347 134.762"
     xmlns="http://www.w3.org/2000/svg" 
     xmlns:xlink="http://www.w3.org/1999/xlink">
<polygon points="171.346,129.759 5.000,129.759 5.000,5.001 171.346,5.001" style="fill:none;stroke-width:0.050000mm;stroke:black"/>
<polygon points="136.865,115.186 148.990,122.186 155.990,110.062 143.865,103.062" style="fill:none;stroke-width:0.050000mm;stroke:black"/>
<polygon points="120.367,105.661 132.492,112.661 139.492,100.537 127.367,93.537" style="fill:none;stroke-width:0.050000mm;stroke:black"/>
<polygon points="36.100,90.869 36.100,104.869 50.100,104.869 50.100,90.869" style="fill:none;stroke-width:0.050000mm;stroke:black"/>
<polygon points="17.050,90.869 17.050,104.869 31.050,104.869 31.050,90.869" style="fill:none;stroke-width:0.050000mm;stroke:black"/>
<polygon points="97.708,101.185 111.231,104.809 114.854,91.286 101.331,87.662" style="fill:none;stroke-width:0.050000mm;stroke:black"/>
<polygon points="148.771,94.564 160.896,101.564 167.896,89.439 155.771,82.439" style="fill:none;stroke-width:0.050000mm;stroke:black"/>
<polygon points="55.150,86.107 55.150,100.107 69.150,100.107 69.150,86.107" style="fill:none;stroke-width:0.050000mm;stroke:black"/>
<polygon points="74.200,83.726 74.200,97.726 88.200,97.726 88.200,83.726" style="fill:none;stroke-width:0.050000mm;stroke:black"/>
<polygon points="132.274,85.039 144.398,92.039 151.398,79.914 139.274,72.914" style="fill:none;stroke-width:0.050000mm;stroke:black"/>
<polygon points="36.099,71.819 36.099,85.819 50.099,85.819 50.099,71.819" style="fill:none;stroke-width:0.050000mm;stroke:black"/>
<polygon points="14.668,71.819 14.668,85.819 28.668,85.819 28.668,71.819" style="fill:none;stroke-width:0.050000mm;stroke:black"/>
<polygon points="112.300,69.438 112.300,83.438 126.300,83.438 126.300,69.438" style="fill:none;stroke-width:0.050000mm;stroke:black"/>
<polygon points="93.250,67.057 93.250,81.057 107.250,81.057 107.250,67.057" style="fill:none;stroke-width:0.050000mm;stroke:black"/>
<polygon points="55.150,67.057 55.150,81.057 69.150,81.057 69.150,67.057" style="fill:none;stroke-width:0.050000mm;stroke:black"/>
<polygon points="74.200,64.676 74.200,78.676 88.200,78.676 88.200,64.676" style="fill:none;stroke-width:0.050000mm;stroke:black"/>
<polygon points="36.099,52.769 36.099,66.769 50.099,66.769 50.099,52.769" style="fill:none;stroke-width:0.050000mm;stroke:black"/>
<polygon points="14.668,52.769 14.668,66.769 28.668,66.769 28.668,52.769" style="fill:none;stroke-width:0.050000mm;stroke:black"/>
<polygon points="112.300,50.388 112.300,64.388 126.300,64.388 126.300,50.388" style="fill:none;stroke-width:0.050000mm;stroke:black"/>
<polygon points="93.250,48.007 93.250,62.007 107.250,62.007 107.250,48.007" style="fill:none;stroke-width:0.050000mm;stroke:black"/>
<polygon points="55.150,48.007 55.150,62.007 69.150,62.007 69.150,48.007" style="fill:none;stroke-width:0.050000mm;stroke:black"/>
<polygon points="74.200,45.626 74.200,59.626 88.200,59.626 88.200,45.626" style="fill:none;stroke-width:0.050000mm;stroke:black"/>
<polygon points="131.350,45.626 131.350,59.626 145.350,59.626 145.350,45.626" style="fill:none;stroke-width:0.050000mm;stroke:black"/>
<polygon points="36.099,33.719 36.099,47.719 50.099,47.719 50.099,33.719" style="fill:none;stroke-width:0.050000mm;stroke:black"/>
<polygon points="14.668,33.719 14.668,47.719 28.668,47.719 28.668,33.719" style="fill:none;stroke-width:0.050000mm;stroke:black"/>
<polygon points="112.300,31.338 112.300,45.338 126.300,45.338 126.300,31.338" style="fill:none;stroke-width:0.050000mm;stroke:black"/>
<polygon points="93.250,28.957 93.250,42.957 107.250,42.957 107.250,28.957" style="fill:none;stroke-width:0.050000mm;stroke:black"/>
<polygon points="55.150,28.957 55.150,42.957 69.150,42.957 69.150,28.957" style="fill:none;stroke-width:0.050000mm;stroke:black"/>
<polygon points="74.200,26.576 74.200,40.576 88.200,40.576 88.200,26.576" style="fill:none;stroke-width:0.050000mm;stroke:black"/>
<polygon points="131.350,21.813 131.350,35.813 145.350,35.813 145.350,21.813" style="fill:none;stroke-width:0.050000mm;stroke:black"/>
<polygon points="36.099,14.669 36.099,28.669 50.099,28.669 50.099,14.669" style="fill:none;stroke-width:0.050000mm;stroke:black"/>
<polygon points="14.668,14.669 14.668,28.669 28.668,28.669 28.668,14.669" style="fill:none;stroke-width:0.050000mm;stroke:black"/>
<polygon points="112.300,12.288 112.300,26.288 126.300,26.288 126.300,12.288" style="fill:none;stroke-width:0.050000mm;stroke:black"/>
<polygon points="93.250,9.907 93.250,23.907 107.250,23.907 107.250,9.907" style="fill:none;stroke-width:0.050000mm;stroke:black"/>
<polygon points="55.150,9.907 55.150,23.907 69.150,23.907 69.150,9.907" style="fill:none;stroke-width:0.050000mm;stroke:black"/>
<polygon points="74.200,7.526 74.200,21.526 88.200,21.526 88.200,7.526" style="fill:none;stroke-width:0.050000mm;stroke:black"/>
</svg>
