G04 #@! TF.GenerationSoftware,KiCad,Pcbnew,(5.1.5)-3*
G04 #@! TF.CreationDate,2020-06-28T12:13:29+08:00*
G04 #@! TF.ProjectId,redox_rev1,7265646f-785f-4726-9576-312e6b696361,1.0*
G04 #@! TF.SameCoordinates,Original*
G04 #@! TF.FileFunction,Soldermask,Bot*
G04 #@! TF.FilePolarity,Negative*
%FSLAX46Y46*%
G04 Gerber Fmt 4.6, Leading zero omitted, Abs format (unit mm)*
G04 Created by KiCad (PCBNEW (5.1.5)-3) date 2020-06-28 12:13:29*
%MOMM*%
%LPD*%
G04 APERTURE LIST*
%ADD10R,1.700000X1.700000*%
%ADD11O,1.700000X1.700000*%
%ADD12R,1.600000X1.600000*%
%ADD13C,1.600000*%
%ADD14R,1.600000X1.200000*%
%ADD15C,0.100000*%
%ADD16R,1.200000X1.600000*%
%ADD17C,2.286000*%
%ADD18C,2.000000*%
%ADD19C,1.500000*%
%ADD20O,1.600000X2.200000*%
%ADD21R,1.752600X1.752600*%
%ADD22C,1.752600*%
%ADD23C,4.000000*%
G04 APERTURE END LIST*
D10*
X198882000Y-101600000D03*
D11*
X198882000Y-104140000D03*
X198882000Y-106680000D03*
D12*
X128180000Y-108585000D03*
D13*
X135980000Y-108585000D03*
D14*
X130680000Y-108585000D03*
X133480000Y-108585000D03*
D12*
X87540000Y-74930000D03*
D13*
X95340000Y-74930000D03*
D14*
X90040000Y-74930000D03*
X92840000Y-74930000D03*
D12*
X109130000Y-74930000D03*
D13*
X116930000Y-74930000D03*
D14*
X111630000Y-74930000D03*
X114430000Y-74930000D03*
D12*
X128180000Y-70485000D03*
D13*
X135980000Y-70485000D03*
D14*
X130680000Y-70485000D03*
X133480000Y-70485000D03*
D12*
X147230000Y-67945000D03*
D13*
X155030000Y-67945000D03*
D14*
X149730000Y-67945000D03*
X152530000Y-67945000D03*
D12*
X166280000Y-70485000D03*
D13*
X174080000Y-70485000D03*
D14*
X168780000Y-70485000D03*
X171580000Y-70485000D03*
D12*
X185330000Y-72390000D03*
D13*
X193130000Y-72390000D03*
D14*
X187830000Y-72390000D03*
X190630000Y-72390000D03*
D12*
X204380000Y-81915000D03*
D13*
X212180000Y-81915000D03*
D14*
X206880000Y-81915000D03*
X209680000Y-81915000D03*
D12*
X87540000Y-93980000D03*
D13*
X95340000Y-93980000D03*
D14*
X90040000Y-93980000D03*
X92840000Y-93980000D03*
D12*
X109130000Y-93980000D03*
D13*
X116930000Y-93980000D03*
D14*
X111630000Y-93980000D03*
X114430000Y-93980000D03*
D12*
X128180000Y-89535000D03*
D13*
X135980000Y-89535000D03*
D14*
X130680000Y-89535000D03*
X133480000Y-89535000D03*
D12*
X147230000Y-86995000D03*
D13*
X155030000Y-86995000D03*
D14*
X149730000Y-86995000D03*
X152530000Y-86995000D03*
D12*
X166280000Y-89535000D03*
D13*
X174080000Y-89535000D03*
D14*
X168780000Y-89535000D03*
X171580000Y-89535000D03*
D12*
X185330000Y-91440000D03*
D13*
X193130000Y-91440000D03*
D14*
X187830000Y-91440000D03*
X190630000Y-91440000D03*
D12*
X204380000Y-106680000D03*
D13*
X212180000Y-106680000D03*
D14*
X206880000Y-106680000D03*
X209680000Y-106680000D03*
D12*
X87540000Y-113030000D03*
D13*
X95340000Y-113030000D03*
D14*
X90040000Y-113030000D03*
X92840000Y-113030000D03*
D12*
X109130000Y-113030000D03*
D13*
X116930000Y-113030000D03*
D14*
X111630000Y-113030000D03*
X114430000Y-113030000D03*
D12*
X147230000Y-106045000D03*
D13*
X155030000Y-106045000D03*
D14*
X149730000Y-106045000D03*
X152530000Y-106045000D03*
D12*
X166280000Y-108585000D03*
D13*
X174080000Y-108585000D03*
D14*
X168780000Y-108585000D03*
X171580000Y-108585000D03*
D12*
X185330000Y-110490000D03*
D13*
X193130000Y-110490000D03*
D14*
X187830000Y-110490000D03*
X190630000Y-110490000D03*
D15*
G36*
X205360321Y-132377180D02*
G01*
X204560321Y-133762820D01*
X203174681Y-132962820D01*
X203974681Y-131577180D01*
X205360321Y-132377180D01*
G37*
D13*
X211022499Y-136570000D03*
D15*
G36*
X207425384Y-133800385D02*
G01*
X206825384Y-134839615D01*
X205439744Y-134039615D01*
X206039744Y-133000385D01*
X207425384Y-133800385D01*
G37*
G36*
X209850256Y-135200385D02*
G01*
X209250256Y-136239615D01*
X207864616Y-135439615D01*
X208464616Y-134400385D01*
X209850256Y-135200385D01*
G37*
D12*
X87540000Y-132080000D03*
D13*
X95340000Y-132080000D03*
D14*
X90040000Y-132080000D03*
X92840000Y-132080000D03*
D12*
X109130000Y-132080000D03*
D13*
X116930000Y-132080000D03*
D14*
X111630000Y-132080000D03*
X114430000Y-132080000D03*
D12*
X128180000Y-127635000D03*
D13*
X135980000Y-127635000D03*
D14*
X130680000Y-127635000D03*
X133480000Y-127635000D03*
D12*
X147230000Y-125095000D03*
D13*
X155030000Y-125095000D03*
D14*
X149730000Y-125095000D03*
X152530000Y-125095000D03*
D12*
X166280000Y-127635000D03*
D13*
X174080000Y-127635000D03*
D14*
X168780000Y-127635000D03*
X171580000Y-127635000D03*
D12*
X185330000Y-129540000D03*
D13*
X193130000Y-129540000D03*
D14*
X187830000Y-129540000D03*
X190630000Y-129540000D03*
D15*
G36*
X221870321Y-141902180D02*
G01*
X221070321Y-143287820D01*
X219684681Y-142487820D01*
X220484681Y-141102180D01*
X221870321Y-141902180D01*
G37*
D13*
X227532499Y-146095000D03*
D15*
G36*
X223935384Y-143325385D02*
G01*
X223335384Y-144364615D01*
X221949744Y-143564615D01*
X222549744Y-142525385D01*
X223935384Y-143325385D01*
G37*
G36*
X226360256Y-144725385D02*
G01*
X225760256Y-145764615D01*
X224374616Y-144964615D01*
X224974616Y-143925385D01*
X226360256Y-144725385D01*
G37*
D12*
X103505000Y-146775000D03*
D13*
X103505000Y-138975000D03*
D16*
X103505000Y-144275000D03*
X103505000Y-141475000D03*
D12*
X122555000Y-144870000D03*
D13*
X122555000Y-137070000D03*
D16*
X122555000Y-142370000D03*
X122555000Y-139570000D03*
D12*
X141605000Y-142330000D03*
D13*
X141605000Y-134530000D03*
D16*
X141605000Y-139830000D03*
X141605000Y-137030000D03*
D12*
X160655000Y-139790000D03*
D13*
X160655000Y-131990000D03*
D16*
X160655000Y-137290000D03*
X160655000Y-134490000D03*
D15*
G36*
X186384921Y-147313315D02*
G01*
X187930402Y-147727426D01*
X187516291Y-149272907D01*
X185970810Y-148858796D01*
X186384921Y-147313315D01*
G37*
D13*
X188969394Y-140758889D03*
D15*
G36*
X187225153Y-144950264D02*
G01*
X188384264Y-145260847D01*
X187970153Y-146806328D01*
X186811042Y-146495745D01*
X187225153Y-144950264D01*
G37*
G36*
X187949847Y-142245672D02*
G01*
X189108958Y-142556255D01*
X188694847Y-144101736D01*
X187535736Y-143791153D01*
X187949847Y-142245672D01*
G37*
G36*
X193041321Y-153713180D02*
G01*
X192241321Y-155098820D01*
X190855681Y-154298820D01*
X191655681Y-152913180D01*
X193041321Y-153713180D01*
G37*
D13*
X198703499Y-157906000D03*
D15*
G36*
X195106384Y-155136385D02*
G01*
X194506384Y-156175615D01*
X193120744Y-155375615D01*
X193720744Y-154336385D01*
X195106384Y-155136385D01*
G37*
G36*
X197531256Y-156536385D02*
G01*
X196931256Y-157575615D01*
X195545616Y-156775615D01*
X196145616Y-155736385D01*
X197531256Y-156536385D01*
G37*
G36*
X209805321Y-163365180D02*
G01*
X209005321Y-164750820D01*
X207619681Y-163950820D01*
X208419681Y-162565180D01*
X209805321Y-163365180D01*
G37*
D13*
X215467499Y-167558000D03*
D15*
G36*
X211870384Y-164788385D02*
G01*
X211270384Y-165827615D01*
X209884744Y-165027615D01*
X210484744Y-163988385D01*
X211870384Y-164788385D01*
G37*
G36*
X214295256Y-166188385D02*
G01*
X213695256Y-167227615D01*
X212309616Y-166427615D01*
X212909616Y-165388385D01*
X214295256Y-166188385D01*
G37*
D17*
X87630000Y-64135000D03*
X93980000Y-61595000D03*
X88900000Y-61595000D03*
X95250000Y-64135000D03*
X173507223Y-138165448D03*
X180298252Y-137355497D03*
X175391349Y-136040696D03*
X180867578Y-140137649D03*
X87630000Y-121285000D03*
X93980000Y-118745000D03*
X88900000Y-118745000D03*
X95250000Y-121285000D03*
X87630000Y-102235000D03*
X93980000Y-99695000D03*
X88900000Y-99695000D03*
X95250000Y-102235000D03*
X87630000Y-83185000D03*
X93980000Y-80645000D03*
X88900000Y-80645000D03*
X95250000Y-83185000D03*
X226570443Y-133055295D03*
X233339705Y-134030591D03*
X228940295Y-131490591D03*
X233169557Y-136865295D03*
X147320000Y-133350000D03*
X153670000Y-130810000D03*
X148590000Y-130810000D03*
X154940000Y-133350000D03*
X128270000Y-135890000D03*
X134620000Y-133350000D03*
X129540000Y-133350000D03*
X135890000Y-135890000D03*
X109220000Y-140335000D03*
X115570000Y-137795000D03*
X110490000Y-137795000D03*
X116840000Y-140335000D03*
X90170000Y-140335000D03*
X96520000Y-137795000D03*
X91440000Y-137795000D03*
X97790000Y-140335000D03*
X185420000Y-118745000D03*
X191770000Y-116205000D03*
X186690000Y-116205000D03*
X193040000Y-118745000D03*
X166370000Y-116840000D03*
X172720000Y-114300000D03*
X167640000Y-114300000D03*
X173990000Y-116840000D03*
X147320000Y-114300000D03*
X153670000Y-111760000D03*
X148590000Y-111760000D03*
X154940000Y-114300000D03*
X128270000Y-116840000D03*
X134620000Y-114300000D03*
X129540000Y-114300000D03*
X135890000Y-116840000D03*
X109220000Y-121285000D03*
X115570000Y-118745000D03*
X110490000Y-118745000D03*
X116840000Y-121285000D03*
X210060443Y-123530295D03*
X216829705Y-124505591D03*
X212430295Y-121965591D03*
X216659557Y-127340295D03*
X185420000Y-99695000D03*
X191770000Y-97155000D03*
X186690000Y-97155000D03*
X193040000Y-99695000D03*
X166370000Y-97790000D03*
X172720000Y-95250000D03*
X167640000Y-95250000D03*
X173990000Y-97790000D03*
X147320000Y-95250000D03*
X153670000Y-92710000D03*
X148590000Y-92710000D03*
X154940000Y-95250000D03*
X128270000Y-97790000D03*
X134620000Y-95250000D03*
X129540000Y-95250000D03*
X135890000Y-97790000D03*
X109220000Y-102235000D03*
X115570000Y-99695000D03*
X110490000Y-99695000D03*
X116840000Y-102235000D03*
X185420000Y-80645000D03*
X191770000Y-78105000D03*
X186690000Y-78105000D03*
X193040000Y-80645000D03*
X166370000Y-78740000D03*
X172720000Y-76200000D03*
X167640000Y-76200000D03*
X173990000Y-78740000D03*
X147320000Y-76200000D03*
X153670000Y-73660000D03*
X148590000Y-73660000D03*
X154940000Y-76200000D03*
X128270000Y-78740000D03*
X134620000Y-76200000D03*
X129540000Y-76200000D03*
X135890000Y-78740000D03*
X109220000Y-83185000D03*
X115570000Y-80645000D03*
X110490000Y-80645000D03*
X116840000Y-83185000D03*
X204470000Y-71120000D03*
X210820000Y-68580000D03*
X205740000Y-68580000D03*
X212090000Y-71120000D03*
X185420000Y-61595000D03*
X191770000Y-59055000D03*
X186690000Y-59055000D03*
X193040000Y-61595000D03*
X166370000Y-59690000D03*
X172720000Y-57150000D03*
X167640000Y-57150000D03*
X173990000Y-59690000D03*
X147320000Y-57150000D03*
X153670000Y-54610000D03*
X148590000Y-54610000D03*
X154940000Y-57150000D03*
X128270000Y-59690000D03*
X134620000Y-57150000D03*
X129540000Y-57150000D03*
X135890000Y-59690000D03*
X109220000Y-64135000D03*
X115570000Y-61595000D03*
X110490000Y-61595000D03*
X116840000Y-64135000D03*
X210820000Y-93980000D03*
X213360000Y-100330000D03*
X213360000Y-95250000D03*
X210820000Y-101600000D03*
X220639705Y-156085443D03*
X219664409Y-162854705D03*
X222204409Y-158455295D03*
X216829705Y-162684557D03*
X204129705Y-146560443D03*
X203154409Y-153329705D03*
X205694409Y-148930295D03*
X200319705Y-153159557D03*
D13*
X200660000Y-63336000D03*
X200660000Y-55536000D03*
X214884000Y-63336000D03*
X214884000Y-55536000D03*
D18*
X114808000Y-55808000D03*
X114808000Y-51308000D03*
X121308000Y-55808000D03*
X121308000Y-51308000D03*
D19*
X210072000Y-59400000D03*
X210072000Y-52400000D03*
D20*
X212372000Y-62100000D03*
X203172000Y-62100000D03*
X207772000Y-61000000D03*
X207772000Y-54000000D03*
D19*
X205472000Y-59400000D03*
X205472000Y-52400000D03*
D20*
X207772000Y-57000000D03*
D21*
X143510000Y-52070000D03*
D22*
X143510000Y-54610000D03*
X143510000Y-57150000D03*
X143510000Y-59690000D03*
X143510000Y-62230000D03*
X143510000Y-64770000D03*
X143510000Y-67310000D03*
X143510000Y-69850000D03*
X143510000Y-72390000D03*
X143510000Y-74930000D03*
X143510000Y-77470000D03*
X158750000Y-80010000D03*
X158750000Y-77470000D03*
X158750000Y-74930000D03*
X158750000Y-72390000D03*
X158750000Y-69850000D03*
X158750000Y-67310000D03*
X158750000Y-64770000D03*
X158750000Y-62230000D03*
X158750000Y-59690000D03*
X158750000Y-57150000D03*
X158750000Y-54610000D03*
X143510000Y-80010000D03*
X158750000Y-52070000D03*
D23*
X213360000Y-144272000D03*
X85725000Y-53975000D03*
X102870000Y-128905000D03*
X196215000Y-52070000D03*
M02*
