G04 #@! TF.GenerationSoftware,KiCad,Pcbnew,(5.1.5)-3*
G04 #@! TF.CreationDate,2021-01-21T15:18:58+08:00*
G04 #@! TF.ProjectId,redox_rev1,7265646f-785f-4726-9576-312e6b696361,1.0*
G04 #@! TF.SameCoordinates,Original*
G04 #@! TF.FileFunction,Paste,Top*
G04 #@! TF.FilePolarity,Positive*
%FSLAX46Y46*%
G04 Gerber Fmt 4.6, Leading zero omitted, Abs format (unit mm)*
G04 Created by KiCad (PCBNEW (5.1.5)-3) date 2021-01-21 15:18:58*
%MOMM*%
%LPD*%
G04 APERTURE LIST*
%ADD10R,1.600000X1.200000*%
%ADD11R,1.143000X0.635000*%
%ADD12C,0.100000*%
%ADD13R,1.200000X1.600000*%
G04 APERTURE END LIST*
D10*
X90615000Y-113030000D03*
X87815000Y-113030000D03*
X90615000Y-132080000D03*
X87815000Y-132080000D03*
X90615000Y-74930000D03*
X87815000Y-74930000D03*
X90615000Y-93980000D03*
X87815000Y-93980000D03*
D11*
X206950000Y-101874620D03*
X206950000Y-102875380D03*
X204375000Y-101874620D03*
X204375000Y-102875380D03*
X209525000Y-101874620D03*
X209525000Y-102875380D03*
X212100000Y-101874620D03*
X212100000Y-102875380D03*
D10*
X133480000Y-108585000D03*
X130680000Y-108585000D03*
X114430000Y-74930000D03*
X111630000Y-74930000D03*
X133480000Y-70485000D03*
X130680000Y-70485000D03*
X152530000Y-67945000D03*
X149730000Y-67945000D03*
X171580000Y-70485000D03*
X168780000Y-70485000D03*
X190630000Y-72390000D03*
X187830000Y-72390000D03*
X114430000Y-93980000D03*
X111630000Y-93980000D03*
X133480000Y-89535000D03*
X130680000Y-89535000D03*
X152530000Y-86995000D03*
X149730000Y-86995000D03*
X171580000Y-89535000D03*
X168780000Y-89535000D03*
X190630000Y-91440000D03*
X187830000Y-91440000D03*
X114430000Y-113030000D03*
X111630000Y-113030000D03*
X152530000Y-106045000D03*
X149730000Y-106045000D03*
X171580000Y-108585000D03*
X168780000Y-108585000D03*
X190630000Y-110490000D03*
X187830000Y-110490000D03*
D12*
G36*
X209850256Y-135200385D02*
G01*
X209250256Y-136239615D01*
X207864616Y-135439615D01*
X208464616Y-134400385D01*
X209850256Y-135200385D01*
G37*
G36*
X207425384Y-133800385D02*
G01*
X206825384Y-134839615D01*
X205439744Y-134039615D01*
X206039744Y-133000385D01*
X207425384Y-133800385D01*
G37*
D10*
X114430000Y-132080000D03*
X111630000Y-132080000D03*
X133480000Y-127635000D03*
X130680000Y-127635000D03*
X152530000Y-125095000D03*
X149730000Y-125095000D03*
X171580000Y-127635000D03*
X168780000Y-127635000D03*
X190630000Y-129540000D03*
X187830000Y-129540000D03*
D12*
G36*
X226360256Y-144725385D02*
G01*
X225760256Y-145764615D01*
X224374616Y-144964615D01*
X224974616Y-143925385D01*
X226360256Y-144725385D01*
G37*
G36*
X223935384Y-143325385D02*
G01*
X223335384Y-144364615D01*
X221949744Y-143564615D01*
X222549744Y-142525385D01*
X223935384Y-143325385D01*
G37*
D13*
X103505000Y-141475000D03*
X103505000Y-144275000D03*
X122555000Y-139570000D03*
X122555000Y-142370000D03*
X141605000Y-137030000D03*
X141605000Y-139830000D03*
X160655000Y-134490000D03*
X160655000Y-137290000D03*
D12*
G36*
X187949847Y-142245672D02*
G01*
X189108958Y-142556255D01*
X188694847Y-144101736D01*
X187535736Y-143791153D01*
X187949847Y-142245672D01*
G37*
G36*
X187225153Y-144950264D02*
G01*
X188384264Y-145260847D01*
X187970153Y-146806328D01*
X186811042Y-146495745D01*
X187225153Y-144950264D01*
G37*
G36*
X197531256Y-156536385D02*
G01*
X196931256Y-157575615D01*
X195545616Y-156775615D01*
X196145616Y-155736385D01*
X197531256Y-156536385D01*
G37*
G36*
X195106384Y-155136385D02*
G01*
X194506384Y-156175615D01*
X193120744Y-155375615D01*
X193720744Y-154336385D01*
X195106384Y-155136385D01*
G37*
G36*
X214295256Y-166188385D02*
G01*
X213695256Y-167227615D01*
X212309616Y-166427615D01*
X212909616Y-165388385D01*
X214295256Y-166188385D01*
G37*
G36*
X211870384Y-164788385D02*
G01*
X211270384Y-165827615D01*
X209884744Y-165027615D01*
X210484744Y-163988385D01*
X211870384Y-164788385D01*
G37*
M02*
