M48
; DRILL file {KiCad (5.1.5)-3} date 1/21/2021 3:19:00 PM
; FORMAT={-:-/ absolute / inch / decimal}
; #@! TF.CreationDate,2021-01-21T15:19:00+08:00
; #@! TF.GenerationSoftware,Kicad,Pcbnew,(5.1.5)-3
FMAT,2
INCH
T1C0.0157
T2C0.0320
T3C0.0354
T4C0.0394
T5C0.0430
T6C0.0433
T7C0.0590
T8C0.0591
T9C0.0670
T10C0.1570
%
G90
G05
T1
X5.39Y-3.43
X5.62Y-4.17
X5.66Y-4.83
X6.11Y-2.55
X6.43Y-2.53
X7.7598Y-2.563
X7.77Y-2.32
X8.1801Y-3.9193
X8.2136Y-3.9508
X8.2247Y-3.8462
X8.2726Y-3.8799
X8.2864Y-3.9409
T2
X8.0472Y-4.31
X8.1472Y-4.31
X8.2472Y-4.31
X8.3472Y-4.31
T4
X6.5465Y-5.025
X6.8535Y-5.025
X3.3589Y-5.2
X3.6659Y-5.2
X6.5465Y-3.525
X6.8535Y-3.525
X5.7965Y-2.675
X6.1035Y-2.675
X8.042Y-5.2232
X8.308Y-5.3768
X7.83Y-4.0
X7.83Y-4.1
X7.83Y-4.2
X7.2965Y-2.85
X7.6035Y-2.85
X4.2965Y-4.45
X4.6035Y-4.45
X4.2965Y-3.7
X4.6035Y-3.7
X7.3603Y-5.8383
X7.4397Y-5.5417
X3.3589Y-4.45
X3.6659Y-4.45
X8.217Y-6.4432
X8.483Y-6.5968
X5.0465Y-3.525
X5.3535Y-3.525
X5.0465Y-2.775
X5.3535Y-2.775
X4.2965Y-2.95
X4.6035Y-2.95
X8.692Y-5.5982
X8.958Y-5.7518
X4.075Y-5.4715
X4.075Y-5.7785
X7.557Y-6.0632
X7.823Y-6.2168
X3.3589Y-2.95
X3.6659Y-2.95
X5.7965Y-3.425
X6.1035Y-3.425
X6.5465Y-4.275
X6.8535Y-4.275
X4.825Y-5.3965
X4.825Y-5.7035
X6.325Y-5.1965
X6.325Y-5.5035
X3.3589Y-3.7
X3.6659Y-3.7
X6.5465Y-2.775
X6.8535Y-2.775
X5.0465Y-5.025
X5.3535Y-5.025
X5.7965Y-4.925
X6.1035Y-4.925
X5.575Y-5.2965
X5.575Y-5.6035
X4.2965Y-5.2
X4.6035Y-5.2
X5.7965Y-4.175
X6.1035Y-4.175
X7.2965Y-5.1
X7.6035Y-5.1
X7.2965Y-4.35
X7.6035Y-4.35
X7.2965Y-3.6
X7.6035Y-3.6
X5.0465Y-4.275
X5.3535Y-4.275
T5
X5.65Y-2.05
X5.65Y-2.15
X5.65Y-2.25
X5.65Y-2.35
X5.65Y-2.45
X5.65Y-2.55
X5.65Y-2.65
X5.65Y-2.75
X5.65Y-2.85
X5.65Y-2.95
X5.65Y-3.05
X5.65Y-3.15
X6.25Y-2.05
X6.25Y-2.15
X6.25Y-2.25
X6.25Y-2.35
X6.25Y-2.45
X6.25Y-2.55
X6.25Y-2.65
X6.25Y-2.75
X6.25Y-2.85
X6.25Y-2.95
X6.25Y-3.05
X6.25Y-3.15
T6
X4.52Y-2.02
X4.52Y-2.1972
X4.7759Y-2.02
X4.7759Y-2.1972
T7
X5.05Y-3.1
X5.1Y-3.0
X5.3Y-3.0
X5.35Y-3.1
X6.55Y-2.35
X6.6Y-2.25
X6.8Y-2.25
X6.85Y-2.35
X4.3Y-5.525
X4.35Y-5.425
X4.55Y-5.425
X4.6Y-5.525
X3.3624Y-3.275
X3.4124Y-3.175
X3.6124Y-3.175
X3.6624Y-3.275
X5.8Y-4.5
X5.85Y-4.4
X6.05Y-4.4
X6.1Y-4.5
X5.8Y-5.25
X5.85Y-5.15
X6.05Y-5.15
X6.1Y-5.25
X6.55Y-4.6
X6.6Y-4.5
X6.8Y-4.5
X6.85Y-4.6
X8.5366Y-6.4049
X8.6482Y-6.4116
X8.6866Y-6.1451
X8.7482Y-6.2384
X3.3624Y-4.775
X3.4124Y-4.675
X3.6124Y-4.675
X3.6624Y-4.775
X6.55Y-3.85
X6.6Y-3.75
X6.8Y-3.75
X6.85Y-3.85
X7.3Y-4.675
X7.35Y-4.575
X7.55Y-4.575
X7.6Y-4.675
X7.3Y-3.175
X7.35Y-3.075
X7.55Y-3.075
X7.6Y-3.175
X8.9201Y-5.2384
X9.0134Y-5.1768
X9.1799Y-5.3884
X9.1866Y-5.2768
X7.3Y-2.425
X7.35Y-2.325
X7.55Y-2.325
X7.6Y-2.425
X5.8Y-3.75
X5.85Y-3.65
X6.05Y-3.65
X6.1Y-3.75
X7.3Y-3.925
X7.35Y-3.825
X7.55Y-3.825
X7.6Y-3.925
X5.05Y-5.35
X5.1Y-5.25
X5.3Y-5.25
X5.35Y-5.35
X5.05Y-3.85
X5.1Y-3.75
X5.3Y-3.75
X5.35Y-3.85
X7.8866Y-6.0299
X7.9982Y-6.0366
X8.0366Y-5.7701
X8.0982Y-5.8634
X3.3624Y-4.025
X3.4124Y-3.925
X3.6124Y-3.925
X3.6624Y-4.025
X5.05Y-4.6
X5.1Y-4.5
X5.3Y-4.5
X5.35Y-4.6
X8.2701Y-4.8634
X8.3634Y-4.8018
X8.5299Y-5.0134
X8.5366Y-4.9018
X6.55Y-3.1
X6.6Y-3.0
X6.8Y-3.0
X6.85Y-3.1
X4.3Y-2.525
X4.35Y-2.425
X4.55Y-2.425
X4.6Y-2.525
X4.3Y-3.275
X4.35Y-3.175
X4.55Y-3.175
X4.6Y-3.275
X5.05Y-2.35
X5.1Y-2.25
X5.3Y-2.25
X5.35Y-2.35
X3.55Y-5.525
X3.6Y-5.425
X3.8Y-5.425
X3.85Y-5.525
X4.3Y-4.025
X4.35Y-3.925
X4.55Y-3.925
X4.6Y-4.025
X5.8Y-3.0
X5.85Y-2.9
X6.05Y-2.9
X6.1Y-3.0
X5.8Y-2.25
X5.85Y-2.15
X6.05Y-2.15
X6.1Y-2.25
X6.831Y-5.4396
X6.9052Y-5.3559
X7.0984Y-5.4077
X7.1208Y-5.5172
X4.3Y-4.775
X4.35Y-4.675
X4.55Y-4.675
X4.6Y-4.775
X3.3624Y-2.525
X3.4124Y-2.425
X3.6124Y-2.425
X3.6624Y-2.525
T8
X8.0894Y-2.063
X8.0894Y-2.3386
X8.2706Y-2.063
X8.2706Y-2.3386
T9
X7.25Y-2.525
X7.65Y-2.525
X5.75Y-3.85
X6.15Y-3.85
X7.25Y-4.025
X7.65Y-4.025
X5.0Y-5.45
X5.4Y-5.45
X5.0Y-3.95
X5.4Y-3.95
X7.775Y-6.0232
X7.975Y-5.6768
X3.3124Y-4.125
X3.7124Y-4.125
X5.0Y-4.7
X5.4Y-4.7
X8.1768Y-4.925
X8.5232Y-5.125
X6.5Y-3.2
X6.9Y-3.2
X4.25Y-2.625
X4.65Y-2.625
X4.25Y-3.375
X4.65Y-3.375
X5.0Y-2.45
X5.4Y-2.45
X3.5Y-5.625
X3.9Y-5.625
X4.25Y-4.125
X4.65Y-4.125
X5.75Y-3.1
X6.15Y-3.1
X5.75Y-2.35
X6.15Y-2.35
X6.7568Y-5.5232
X7.1432Y-5.6268
X4.25Y-4.875
X4.65Y-4.875
X3.3124Y-2.625
X3.7124Y-2.625
X5.0Y-3.2
X5.4Y-3.2
X6.5Y-2.45
X6.9Y-2.45
X4.25Y-5.625
X4.65Y-5.625
X3.3124Y-3.375
X3.7124Y-3.375
X5.75Y-4.6
X6.15Y-4.6
X5.75Y-5.35
X6.15Y-5.35
X6.5Y-4.7
X6.9Y-4.7
X8.425Y-6.3982
X8.625Y-6.0518
X3.3124Y-4.875
X3.7124Y-4.875
X6.5Y-3.95
X6.9Y-3.95
X7.25Y-4.775
X7.65Y-4.775
X7.25Y-3.275
X7.65Y-3.275
X8.8268Y-5.3
X9.1732Y-5.5
T10
X7.45Y-2.525
X5.95Y-3.85
X7.45Y-4.025
X5.2Y-5.45
X5.2Y-3.95
X7.875Y-5.85
X3.5124Y-4.125
X5.2Y-4.7
X8.35Y-5.025
X6.7Y-3.2
X4.45Y-2.625
X4.45Y-3.375
X5.2Y-2.45
X3.7Y-5.625
X4.45Y-4.125
X5.95Y-3.1
X5.95Y-2.35
X6.95Y-5.575
X4.45Y-4.875
X3.5124Y-2.625
X5.2Y-3.2
X6.7Y-2.45
X4.45Y-5.625
X3.5124Y-3.375
X5.95Y-4.6
X5.95Y-5.35
X6.7Y-4.7
X8.525Y-6.225
X3.5124Y-4.875
X6.7Y-3.95
X7.45Y-4.775
X7.45Y-3.275
X9.0Y-5.4
T3
G00X7.9989Y-2.4331
M15
G01X7.9989Y-2.4567
M16
G05
G00X8.18Y-2.1142
M15
G01X8.18Y-2.1378
M16
G05
G00X8.18Y-2.2323
M15
G01X8.18Y-2.2559
M16
G05
G00X8.18Y-2.3898
M15
G01X8.18Y-2.4134
M16
G05
G00X8.3611Y-2.4331
M15
G01X8.3611Y-2.4567
M16
G05
T0
M30
